<?xml version="1.0" encoding="UTF-8"?>
<svg version="1.1" xmlns="http://www.w3.org/2000/svg" width="100" height="100">
<path d="M0 0 C33 0 66 0 100 0 C100 33 100 66 100 100 C67 100 34 100 0 100 C0 67 0 34 0 0 Z " fill="#FCFBF9" transform="translate(0,0)"/>
<path d="M0 0 C0.83920486 0.0028299 1.67840973 0.00565979 2.54304504 0.00857544 C5.22285228 0.01976865 7.90232506 0.04487149 10.58203125 0.0703125 C12.39908371 0.08034342 14.21614142 0.08946907 16.03320312 0.09765625 C20.487108 0.11970516 24.94076292 0.15422899 29.39453125 0.1953125 C29.39453125 3.1653125 29.39453125 6.1353125 29.39453125 9.1953125 C17.84453125 9.1953125 6.29453125 9.1953125 -5.60546875 9.1953125 C-5.60546875 25.0353125 -5.60546875 40.8753125 -5.60546875 57.1953125 C-8.90546875 57.1953125 -12.20546875 57.1953125 -15.60546875 57.1953125 C-15.70449261 50.32686551 -15.77701215 43.45883591 -15.82519531 36.58984375 C-15.84528584 34.25415812 -15.87256336 31.91852263 -15.90722656 29.58300781 C-15.95585566 26.22187919 -15.97846367 22.86141675 -15.99609375 19.5 C-16.01673889 18.45915253 -16.03738403 17.41830505 -16.05865479 16.34591675 C-16.06051704 10.30183162 -15.69312499 6.76555208 -11.60546875 2.1953125 C-7.72053713 -0.39464191 -4.49979639 -0.05694292 0 0 Z " fill="#E4601F" transform="translate(34.60546875,14.8046875)"/>
<path d="M0 0 C2.97 0 5.94 0 9 0 C9.07421336 6.60194443 9.12863267 13.20364547 9.16479492 19.8059082 C9.17987182 22.05139394 9.20033653 24.29685029 9.22631836 26.54223633 C9.26274918 29.77172099 9.27973755 33.00081594 9.29296875 36.23046875 C9.30845261 37.23272995 9.32393646 38.23499115 9.33988953 39.2676239 C9.34199169 47.99381244 9.34199169 47.99381244 6 52 C2.62607893 54.49311867 -0.66239024 54.2067522 -4.75 54.125 C-5.92046875 54.10695312 -7.0909375 54.08890625 -8.296875 54.0703125 C-9.18890625 54.04710937 -10.0809375 54.02390625 -11 54 C-11 51.03 -11 48.06 -11 45 C-6.05 44.505 -6.05 44.505 -1 44 C-0.67 29.48 -0.34 14.96 0 0 Z " fill="#E46021" transform="translate(72,31)"/>
<path d="M0 0 C0.74958984 0.00902344 1.49917969 0.01804687 2.27148438 0.02734375 C4.11862654 0.05087422 5.96560412 0.08674439 7.8125 0.125 C7.8125 1.775 7.8125 3.425 7.8125 5.125 C3.1925 5.455 -1.4275 5.785 -6.1875 6.125 C-6.8475 9.095 -7.5075 12.065 -8.1875 15.125 C-2.9075 15.125 2.3725 15.125 7.8125 15.125 C7.8125 16.775 7.8125 18.425 7.8125 20.125 C2.5325 20.125 -2.7475 20.125 -8.1875 20.125 C-8.1875 31.015 -8.1875 41.905 -8.1875 53.125 C-9.8375 53.125 -11.4875 53.125 -13.1875 53.125 C-13.1875 42.235 -13.1875 31.345 -13.1875 20.125 C-15.4975 20.125 -17.8075 20.125 -20.1875 20.125 C-20.1875 18.475 -20.1875 16.825 -20.1875 15.125 C-17.8775 15.125 -15.5675 15.125 -13.1875 15.125 C-13.21070313 14.52171875 -13.23390625 13.9184375 -13.2578125 13.296875 C-13.27585937 12.49765625 -13.29390625 11.6984375 -13.3125 10.875 C-13.33570313 10.08609375 -13.35890625 9.2971875 -13.3828125 8.484375 C-13.16461178 5.84851026 -12.61717069 4.34051617 -11.1875 2.125 C-7.39586973 -0.40275351 -4.37875969 -0.09943035 0 0 Z " fill="#3A3C42" transform="translate(56.1875,31.875)"/>
<path d="M0 0 C0.83920486 0.0028299 1.67840973 0.00565979 2.54304504 0.00857544 C5.22285228 0.01976865 7.90232506 0.04487149 10.58203125 0.0703125 C12.39908371 0.08034342 14.21614142 0.08946907 16.03320312 0.09765625 C20.487108 0.11970516 24.94076292 0.15422899 29.39453125 0.1953125 C29.39453125 3.1653125 29.39453125 6.1353125 29.39453125 9.1953125 C17.84453125 9.1953125 6.29453125 9.1953125 -5.60546875 9.1953125 C-5.60546875 25.0353125 -5.60546875 40.8753125 -5.60546875 57.1953125 C-8.90546875 57.1953125 -12.20546875 57.1953125 -15.60546875 57.1953125 C-15.70449261 50.32686551 -15.77701215 43.45883591 -15.82519531 36.58984375 C-15.84528584 34.25415812 -15.87256336 31.91852263 -15.90722656 29.58300781 C-15.95585566 26.22187919 -15.97846367 22.86141675 -15.99609375 19.5 C-16.01673889 18.45915253 -16.03738403 17.41830505 -16.05865479 16.34591675 C-16.06051704 10.30183162 -15.69312499 6.76555208 -11.60546875 2.1953125 C-7.72053713 -0.39464191 -4.49979639 -0.05694292 0 0 Z M-11.60546875 3.1953125 C-15.27747748 8.64222774 -14.99652042 13.74634271 -14.8984375 20.0625 C-14.89419266 21.09722443 -14.88994781 22.13194885 -14.88557434 23.19802856 C-14.86883871 26.48905931 -14.83119524 29.77946816 -14.79296875 33.0703125 C-14.77791533 35.3072828 -14.76422808 37.54426273 -14.75195312 39.78125 C-14.71895197 45.25281483 -14.66880343 50.72401922 -14.60546875 56.1953125 C-12.29546875 56.1953125 -9.98546875 56.1953125 -7.60546875 56.1953125 C-7.60546875 40.3553125 -7.60546875 24.5153125 -7.60546875 8.1953125 C3.28453125 8.1953125 14.17453125 8.1953125 25.39453125 8.1953125 C25.39453125 6.2153125 25.39453125 4.2353125 25.39453125 2.1953125 C20.44661831 2.1706299 15.49874105 2.15246084 10.55078125 2.14038086 C8.86685563 2.13534597 7.18293439 2.12851769 5.49902344 2.11987305 C3.08136922 2.10777054 0.66377269 2.10207582 -1.75390625 2.09765625 C-2.50916595 2.09249496 -3.26442566 2.08733368 -4.04257202 2.08201599 C-7.95194984 2.00211062 -7.95194984 2.00211062 -11.60546875 3.1953125 Z " fill="#D3744A" transform="translate(34.60546875,14.8046875)"/>
<path d="M0 0 C2.97 0 5.94 0 9 0 C9.07421336 6.60194443 9.12863267 13.20364547 9.16479492 19.8059082 C9.17987182 22.05139394 9.20033653 24.29685029 9.22631836 26.54223633 C9.26274918 29.77172099 9.27973755 33.00081594 9.29296875 36.23046875 C9.30845261 37.23272995 9.32393646 38.23499115 9.33988953 39.2676239 C9.34199169 47.99381244 9.34199169 47.99381244 6 52 C2.62607893 54.49311867 -0.66239024 54.2067522 -4.75 54.125 C-5.92046875 54.10695312 -7.0909375 54.08890625 -8.296875 54.0703125 C-9.18890625 54.04710937 -10.0809375 54.02390625 -11 54 C-11 51.03 -11 48.06 -11 45 C-6.05 44.505 -6.05 44.505 -1 44 C-0.67 29.48 -0.34 14.96 0 0 Z M1 1 C0.67 15.85 0.34 30.7 0 46 C-3.3 46 -6.6 46 -10 46 C-10 47.98 -10 49.96 -10 52 C-5.04653013 53.59789351 -0.86717585 52.28306814 4 51 C4 49.35 4 47.7 4 46 C4.99 46.33 5.98 46.66 7 47 C8.20050456 46.01922281 8.20050456 46.01922281 8.12025452 44.17137146 C8.11803391 43.37417191 8.11581329 42.57697235 8.11352539 41.75561523 C8.11344986 40.85475693 8.11337433 39.95389862 8.11329651 39.02574158 C8.10813522 38.04658279 8.10297394 37.06742401 8.09765625 36.05859375 C8.0962413 35.06118668 8.09482635 34.0637796 8.09336853 33.03614807 C8.08775114 29.83656876 8.07519571 26.63705831 8.0625 23.4375 C8.05748724 21.27408955 8.05292395 19.11067801 8.04882812 16.94726562 C8.03777607 11.63148675 8.02102104 6.31574829 8 1 C5.69 1 3.38 1 1 1 Z " fill="#CC6B3B" transform="translate(72,31)"/>
<path d="M0 0 C0.33 0 0.66 0 1 0 C1.02527124 6.24795675 1.04283344 12.49590041 1.05493164 18.74389648 C1.05997298 20.87118014 1.06680591 22.99846031 1.07543945 25.12573242 C1.08751379 28.17627826 1.09323014 31.22677845 1.09765625 34.27734375 C1.10281754 35.23462875 1.10797882 36.19191376 1.11329651 37.1782074 C1.11337204 38.05904495 1.11344757 38.93988251 1.11352539 39.84741211 C1.115746 40.62684677 1.11796661 41.40628143 1.12025452 42.20933533 C1 44 1 44 0 45 C-1.68608966 45.07205511 -3.37500659 45.08386068 -5.0625 45.0625 C-5.98160156 45.05347656 -6.90070313 45.04445312 -7.84765625 45.03515625 C-8.55792969 45.02355469 -9.26820312 45.01195312 -10 45 C-10 47.97 -10 50.94 -10 54 C-10.66 54 -11.32 54 -12 54 C-12.10824843 52.3973218 -12.18570645 50.79254252 -12.25 49.1875 C-12.29640625 48.29417969 -12.3428125 47.40085938 -12.390625 46.48046875 C-12 44 -12 44 -10.171875 42.11328125 C-9.45515625 41.74589844 -8.7384375 41.37851563 -8 41 C-7.01 41.33 -6.02 41.66 -5 42 C-3.35 42 -1.7 42 0 42 C0 28.14 0 14.28 0 0 Z " fill="#FAD9C6" transform="translate(71,31)"/>
<path d="M0 0 C0.81417892 0.02644089 1.62835785 0.05288177 2.46720886 0.0801239 C5.05573516 0.16756855 7.64280795 0.27682553 10.23046875 0.38671875 C11.99018306 0.45001084 13.74994932 0.51187576 15.50976562 0.57226562 C19.81327719 0.72305764 24.115618 0.89341046 28.41796875 1.07421875 C28.41796875 1.73421875 28.41796875 2.39421875 28.41796875 3.07421875 C27.2877832 3.09403809 26.15759766 3.11385742 24.99316406 3.13427734 C20.79599911 3.21040755 16.59917749 3.29911354 12.40234375 3.39160156 C10.58665754 3.42986066 8.77089634 3.46471892 6.95507812 3.49609375 C4.34347752 3.54181105 1.73239187 3.59979411 -0.87890625 3.66015625 C-1.68946472 3.67170746 -2.50002319 3.68325867 -3.33514404 3.69515991 C-7.19467849 3.79600031 -10.31021711 3.88532901 -13.58203125 6.07421875 C-13.58203125 5.08421875 -13.58203125 4.09421875 -13.58203125 3.07421875 C-9.41066633 -0.50071826 -5.20819187 -0.24832153 0 0 Z " fill="#FEE1CA" transform="translate(35.58203125,11.92578125)"/>
<path d="M0 0 C10.23 0 20.46 0 31 0 C31 2.31 31 4.62 31 7 C30.01 7 29.02 7 28 7 C28 5.02 28 3.04 28 1 C18.76 1 9.52 1 0 1 C0 0.67 0 0.34 0 0 Z " fill="#DC6428" transform="translate(32,16)"/>
<path d="M0 0 C3.3 0 6.6 0 10 0 C10 0.66 10 1.32 10 2 C7.03 1.505 7.03 1.505 4 1 C4 1.99 4 2.98 4 4 C6.64 4.33 9.28 4.66 12 5 C12 5.33 12 5.66 12 6 C10.18818595 6.19401633 8.37551468 6.38004375 6.5625 6.5625 C5.04849609 6.71912109 5.04849609 6.71912109 3.50390625 6.87890625 C2.67761719 6.91886719 1.85132813 6.95882812 1 7 C0 6 0 6 -0.0625 2.9375 C-0.041875 1.968125 -0.02125 0.99875 0 0 Z " fill="#DD6326" transform="translate(62,77)"/>
<path d="M0 0 C0.99 0.33 1.98 0.66 3 1 C3 2.32 3 3.64 3 5 C0.03 4.67 -2.94 4.34 -6 4 C-6 3.01 -6 2.02 -6 1 C-3.03 1.495 -3.03 1.495 0 2 C0 1.34 0 0.68 0 0 Z " fill="#EF5D15" transform="translate(72,77)"/>
</svg>
